<svg width="46" height="46" viewBox="0 0 46 46" fill="none" xmlns="http://www.w3.org/2000/svg">
<path d="M1.86669 1.70003C-0.266646 3.83337 -0.399979 31.5667 1.86669 32.9C4.66669 34.6334 39.6 35.1667 42.8 33.5667C45.3334 32.1 45.6 30.9 45.6 17.7C45.6 8.23337 45.0667 2.7667 44 1.70003C41.7334 -0.566633 4.13335 -0.566633 1.86669 1.70003ZM42.8 9.70003C42.6667 13.5667 42.2667 15.4334 42 13.7C40.9334 8.50003 38.9334 10.5 38.9334 16.7667C38.9334 22.7667 40.8 24.9 42 20.3667C42.4 19.1667 42.6667 21.0334 42.5334 24.7667L42.2667 31.4334H22.9334H3.60002L3.33335 24.7667C3.20002 21.0334 3.46669 19.1667 3.86669 20.3667C5.06669 24.9 6.93335 22.7667 6.93335 16.7667C6.93335 10.5 4.93335 8.50003 3.86669 13.7C3.60002 15.4334 3.20002 13.5667 3.06669 9.70003L2.93335 2.7667H22.9334H42.9334L42.8 9.70003Z" fill="black"/>
<path d="M21.6 17.4334C21.6 24.5 22.1333 29.4334 22.9333 29.4334C23.7333 29.4334 24.2666 24.5 24.2666 17.4334C24.2666 10.3667 23.7333 5.43337 22.9333 5.43337C22.1333 5.43337 21.6 10.3667 21.6 17.4334Z" fill="black"/>
<path d="M17.6 17.5666C17.6 23.4333 18.1333 26.6333 18.9333 26.1C19.7333 25.7 20.2666 21.4333 20.2666 16.6333C20.2666 11.8333 19.7333 8.09995 18.9333 8.09995C18.1333 8.09995 17.6 12.1 17.6 17.5666Z" fill="black"/>
<path d="M25.6 16.6333C25.6 21.4333 26.2666 25.7 26.9333 26.1C27.7333 26.6333 28.2666 23.4333 28.2666 17.5666C28.2666 12.1 27.7333 8.09995 26.9333 8.09995C26.1333 8.09995 25.6 11.8333 25.6 16.6333Z" fill="black"/>
<path d="M29.6 16.7666C29.6 20.1 30.2666 22.7666 30.9333 22.7666C31.7333 22.7666 32.2666 21.8333 32.2666 20.6333C32.2666 19.1666 33.0666 18.7666 34.9333 19.4333C37.0666 20.1 37.6 19.7 37.6 16.9C37.6 15.0333 37.0666 13.4333 36.2666 13.4333C35.6 13.4333 34.9333 13.9666 34.9333 14.7666C34.9333 15.4333 34.4 16.1 33.6 16.1C32.9333 16.1 32.2666 14.9 32.2666 13.4333C32.2666 11.9666 31.7333 10.7666 30.9333 10.7666C30.2666 10.7666 29.6 13.4333 29.6 16.7666Z" fill="black"/>
<path d="M13.6 14.1C13.6 16.5 12 16.6333 9.86666 14.5C8.66666 13.3 8.26666 13.7 8.26666 16.6333C8.26666 19.7 8.66666 20.1 10.9333 19.4333C13.0667 18.7667 13.6 19.1667 13.6 21.3C13.6 22.9 14.2667 24.1 14.9333 24.1C15.7333 24.1 16.2667 21.4333 16.2667 18.1C16.2667 14.7667 15.7333 12.1 14.9333 12.1C14.2667 12.1 13.6 13.0333 13.6 14.1Z" fill="black"/>
<path d="M3.73333 38.3667L0 40.3667L3.06667 42.2333C9.2 45.7 9.73333 45.7 12.1333 43.5667C14 41.8333 17.6 41.4333 30.1333 41.4333C40.2667 41.4333 45.4667 40.9 44.9333 40.1C44.4 39.3 37.3333 38.7667 28.2667 38.7667C19.2 38.7667 12.1333 38.2333 11.6 37.4333C10.5333 35.7 8.4 35.9667 3.73333 38.3667ZM10.9333 40.7667C10.9333 41.8333 10 42.7667 8.93333 42.7667C7.86667 42.7667 6.93333 41.8333 6.93333 40.7667C6.93333 39.7 7.86667 38.7667 8.93333 38.7667C10 38.7667 10.9333 39.7 10.9333 40.7667Z" fill="black"/>
</svg>
